# xmcd CD database file
#
# Track frame offsets:
#	150
#	15435
#	36107
#	51222
#	64547
#	93727
#	107440
#	122950
#	148142
#	167347
#
# Disc length: 2631 seconds
#
# Revision: 4
# Processed by: cddbd v1.5.1PL0 Copyright (c) Steve Scherf et al.
# Submitted via: CDex 1.51
#
DISCID=7f0a450a
DTITLE=The Pop Group - Y
DYEAR=1979
DGENRE=Rock
TTITLE0=She Is Beyond Good and Evil
TTITLE1=Thief on Fire
TTITLE2=Snow Girl
TTITLE3=Blood Money
TTITLE4=We Are Time
TTITLE5=Savage Sea
TTITLE6=Words Disobey Me
TTITLE7=Don't Call Me Pain
TTITLE8=The Boys from Brazil
TTITLE9=Don't Sell Your Dreams
EXTD=YEAR: 1979
EXTT0=
EXTT1=
EXTT2=
EXTT3=
EXTT4=
EXTT5=
EXTT6=
EXTT7=
EXTT8=
EXTT9=
PLAYORDER=
